# xmcd
#
# Track frame offsets:
#	150
#	16226
#	30669
#	46494
#	62483
#	80267
#	100489
#	125585
#	141362
#	157924
#	174091
#	190528
#	207558
#	223918
#	241845
#	259328
#	276492
#	293887
#	314605
#	338505
#
# Disc length: 4795 seconds
#
# Revision: 2
# Processed by: cddbd v1.5.2PL0 Copyright (c) Steve Scherf et al.
# Submitted via: audiograbber 1.83.01
#
DISCID=2712b914
DTITLE=Various Artist - Bravo - Black Hits Vol.10 [CD 1of2)
DYEAR=2004
DGENRE=320 kBits - CD
TTITLE0=Jamelia - Superstar
TTITLE1=Kevin Lyttle - Turn Me On
TTITLE2=Sean Paul - I'm Still In Love With You
TTITLE3=Bro'sis - U Build Me Up
TTITLE4=Beyonce - Me, Myself And I
TTITLE5=R. Kelly - Step In The Name Of Love
TTITLE6=Alicia Keys - You Don't Know My Name
TTITLE7=Blue Cantrell Ft. Ian Lewis - Make Me Wanna Scream
TTITLE8=Wayne Wonder - Bounce Along
TTITLE9=Blaque Ivory - I'm Good
TTITLE10=Craig David - World Filled With Love
TTITLE11=Seal - Get It Together
TTITLE12=Justin Timberlake - I'm Lovin' It
TTITLE13=Sugababes - Too Lost In You
TTITLE14=Outlandish - Walou
TTITLE15=Raekwon Ft. Tiffany - Hood
TTITLE16=L.O.V.E. - L.O.V.E.
TTITLE17=Sabina Setlur Ft. Glashaus and Franziska - Liebe
TTITLE18=D-Flame - Polizisten
TTITLE19=Daten-CD - Daten-CD
EXTD=
EXTT0=
EXTT1=
EXTT2=
EXTT3=
EXTT4=
EXTT5=
EXTT6=
EXTT7=
EXTT8=
EXTT9=
EXTT10=
EXTT11=
EXTT12=
EXTT13=
EXTT14=
EXTT15=
EXTT16=
EXTT17=
EXTT18=
EXTT19=
PLAYORDER=
